# xmcd
#
# Track frame offsets:
#	150
#	14601
#	34073
#	57433
#	78267
#	102267
#	120485
#	138569
#	161618
#	184277
#	201701
#	216783
#	239442
#	254448
#	277738
#
# Disc length: 3952 seconds
#
# Revision: 0
# Processed by: cddbd v1.5.2PL0 Copyright (c) Steve Scherf et al.
# Submitted via: EasyCDDAExtractor 9.0.0.1
#
DISCID=dc0f6e0f
DTITLE=Various Artist - Simple Life Disc-1
DYEAR=1900
DGENRE=
TTITLE0=李宗盛 - 寂寞難耐
TTITLE1=易桀齊 - 花的話
TTITLE2=陳綺貞 - 告訴我
TTITLE3=Beyond - 想你
TTITLE4=范瑋琪 - 那些花兒
TTITLE5=錦繡二重唱 - 明天也要作伴
TTITLE6=阿牛 - 星星亮了
TTITLE7=蘇慧倫 - Final Home
TTITLE8=張震嶽 - 分手吧
TTITLE9=卓文萱 - 想家
TTITLE10=莫文蔚 - 忽然之間
TTITLE11=黃韻玲、羅紘武 - 你是唯一
TTITLE12=羅大佑 - 戀曲1980
TTITLE13=紀曉君 - 故鄉普悠瑪
TTITLE14=李欣芸 - 鬥魚
EXTD=
EXTT0=
EXTT1=
EXTT2=
EXTT3=
EXTT4=
EXTT5=
EXTT6=
EXTT7=
EXTT8=
EXTT9=
EXTT10=
EXTT11=
EXTT12=
EXTT13=
EXTT14=
PLAYORDER=
